<svg width="20" height="20" viewBox="0 0 20 20" fill="none" xmlns="http://www.w3.org/2000/svg">
<path d="M7.07589 9.40834L11.7926 4.70001C11.87 4.6219 11.9622 4.5599 12.0637 4.5176C12.1653 4.47529 12.2742 4.45351 12.3842 4.45351C12.4942 4.45351 12.6032 4.47529 12.7047 4.5176C12.8063 4.5599 12.8984 4.6219 12.9759 4.70001C13.1311 4.85614 13.2182 5.06735 13.2182 5.28751C13.2182 5.50766 13.1311 5.71887 12.9759 5.87501L8.85089 10.0417L12.9759 14.1667C13.1311 14.3228 13.2182 14.534 13.2182 14.7542C13.2182 14.9743 13.1311 15.1855 12.9759 15.3417C12.8987 15.4204 12.8067 15.4831 12.7051 15.526C12.6036 15.5689 12.4945 15.5912 12.3842 15.5917C12.274 15.5912 12.1649 15.5689 12.0633 15.526C11.9618 15.4831 11.8697 15.4204 11.7926 15.3417L7.07589 10.6333C6.99131 10.5553 6.9238 10.4606 6.87763 10.3552C6.83145 10.2498 6.80762 10.1359 6.80762 10.0208C6.80762 9.90575 6.83145 9.79192 6.87763 9.6865C6.9238 9.58108 6.99131 9.48637 7.07589 9.40834Z" fill="#B8B8C6"/>
</svg>
