<svg width="16" height="16" viewBox="0 0 16 16" fill="none" xmlns="http://www.w3.org/2000/svg">
<path d="M10.3318 7.51898L6.55843 3.75231C6.49646 3.68983 6.42272 3.64023 6.34148 3.60639C6.26024 3.57254 6.17311 3.55511 6.0851 3.55511C5.99709 3.55511 5.90995 3.57254 5.82871 3.60639C5.74748 3.64023 5.67374 3.68983 5.61177 3.75231C5.4876 3.87722 5.4179 4.04619 5.4179 4.22231C5.4179 4.39844 5.4876 4.56741 5.61177 4.69231L8.91176 8.02565L5.61177 11.3256C5.4876 11.4506 5.4179 11.6195 5.4179 11.7956C5.4179 11.9718 5.4876 12.1407 5.61177 12.2656C5.67351 12.3286 5.74714 12.3788 5.82839 12.4131C5.90964 12.4474 5.99689 12.4653 6.0851 12.4656C6.1733 12.4653 6.26056 12.4474 6.34181 12.4131C6.42306 12.3788 6.49669 12.3286 6.55843 12.2656L10.3318 8.49898C10.3994 8.43655 10.4534 8.36078 10.4904 8.27645C10.5273 8.19212 10.5464 8.10105 10.5464 8.00898C10.5464 7.91691 10.5273 7.82584 10.4904 7.74151C10.4534 7.65718 10.3994 7.58141 10.3318 7.51898Z" fill="#B8B8C6"/>
</svg>
