<svg width="20" height="20" viewBox="0 0 20 20" fill="none" xmlns="http://www.w3.org/2000/svg">
<path d="M12.9241 10.5917L8.20744 15.3C8.12997 15.3781 8.0378 15.4401 7.93625 15.4824C7.8347 15.5247 7.72578 15.5465 7.61577 15.5465C7.50576 15.5465 7.39684 15.5247 7.29529 15.4824C7.19374 15.4401 7.10157 15.3781 7.02411 15.3C6.8689 15.1439 6.78178 14.9327 6.78178 14.7125C6.78178 14.4924 6.8689 14.2811 7.02411 14.125L11.1491 9.95834L7.02411 5.83334C6.8689 5.67721 6.78178 5.466 6.78178 5.24584C6.78178 5.02569 6.8689 4.81448 7.02411 4.65834C7.10129 4.5796 7.19332 4.51696 7.29489 4.47405C7.39645 4.43113 7.50552 4.4088 7.61577 4.40834C7.72603 4.4088 7.8351 4.43113 7.93666 4.47405C8.03822 4.51696 8.13026 4.5796 8.20744 4.65834L12.9241 9.36668C13.0087 9.44471 13.0762 9.53942 13.1224 9.64484C13.1685 9.75025 13.1924 9.86409 13.1924 9.97918C13.1924 10.0943 13.1685 10.2081 13.1224 10.3135C13.0762 10.4189 13.0087 10.5136 12.9241 10.5917Z" fill="#27292E"/>
</svg>
