<svg width="25" height="25" viewBox="0 0 25 25" fill="none" xmlns="http://www.w3.org/2000/svg">
<path d="M23.75 20C23.75 20.1989 23.671 20.3897 23.5303 20.5303C23.3897 20.671 23.1989 20.75 23 20.75H2C1.80109 20.75 1.61032 20.671 1.46967 20.5303C1.32902 20.3897 1.25 20.1989 1.25 20C1.25 19.8011 1.32902 19.6103 1.46967 19.4697C1.61032 19.329 1.80109 19.25 2 19.25H23C23.1989 19.25 23.3897 19.329 23.5303 19.4697C23.671 19.6103 23.75 19.8011 23.75 20ZM2.02812 9.70623C1.98343 9.54905 1.99129 9.38157 2.05052 9.22927C2.10975 9.07697 2.2171 8.94817 2.35625 8.86248L12.1063 2.86249C12.2242 2.78843 12.3607 2.74915 12.5 2.74915C12.6393 2.74915 12.7758 2.78843 12.8937 2.86249L22.6437 8.86248C22.7823 8.94834 22.8891 9.07699 22.948 9.22896C23.0069 9.38093 23.0147 9.54795 22.9702 9.70474C22.9257 9.86153 22.8313 9.99956 22.7014 10.0979C22.5714 10.1963 22.413 10.2497 22.25 10.25H20V16.25H21.5C21.6989 16.25 21.8897 16.329 22.0303 16.4697C22.171 16.6103 22.25 16.8011 22.25 17C22.25 17.1989 22.171 17.3897 22.0303 17.5303C21.8897 17.671 21.6989 17.75 21.5 17.75H3.5C3.30109 17.75 3.11032 17.671 2.96967 17.5303C2.82902 17.3897 2.75 17.1989 2.75 17C2.75 16.8011 2.82902 16.6103 2.96967 16.4697C3.11032 16.329 3.30109 16.25 3.5 16.25H5V10.25H2.75C2.58692 10.2502 2.42823 10.1972 2.29796 10.0991C2.1677 10.0009 2.07297 9.86303 2.02812 9.70623ZM14 15.5C14 15.6989 14.079 15.8897 14.2197 16.0303C14.3603 16.171 14.5511 16.25 14.75 16.25C14.9489 16.25 15.1397 16.171 15.2803 16.0303C15.421 15.8897 15.5 15.6989 15.5 15.5V11C15.5 10.8011 15.421 10.6103 15.2803 10.4697C15.1397 10.329 14.9489 10.25 14.75 10.25C14.5511 10.25 14.3603 10.329 14.2197 10.4697C14.079 10.6103 14 10.8011 14 11V15.5ZM9.5 15.5C9.5 15.6989 9.57902 15.8897 9.71967 16.0303C9.86032 16.171 10.0511 16.25 10.25 16.25C10.4489 16.25 10.6397 16.171 10.7803 16.0303C10.921 15.8897 11 15.6989 11 15.5V11C11 10.8011 10.921 10.6103 10.7803 10.4697C10.6397 10.329 10.4489 10.25 10.25 10.25C10.0511 10.25 9.86032 10.329 9.71967 10.4697C9.57902 10.6103 9.5 10.8011 9.5 11V15.5Z" fill="#103177"/>
</svg>
