<svg width="25" height="25" viewBox="0 0 25 25" fill="none" xmlns="http://www.w3.org/2000/svg">
<path d="M20.8854 16.9906C20.3323 16.0344 19.6667 14.2156 19.6667 11V10.3344C19.6667 6.18126 16.3292 2.77813 12.2229 2.75001H12.1667C11.1814 2.74877 10.2056 2.94192 9.29507 3.3184C8.38457 3.69487 7.55729 4.24727 6.8606 4.94395C6.16392 5.64064 5.61152 6.46792 5.23504 7.37842C4.85857 8.28892 4.66542 9.26474 4.66665 10.25V11C4.66665 14.2156 4.00103 16.0344 3.4479 16.9906C3.31119 17.2183 3.23819 17.4785 3.23654 17.744C3.23489 18.0096 3.30465 18.2707 3.43853 18.5C3.56979 18.7293 3.75963 18.9196 3.9886 19.0513C4.21758 19.1831 4.47747 19.2517 4.74165 19.25H19.5917C19.8558 19.2517 20.1157 19.1831 20.3447 19.0513C20.5737 18.9196 20.7635 18.7293 20.8948 18.5C21.0287 18.2707 21.0984 18.0096 21.0968 17.744C21.0951 17.4785 21.0221 17.2183 20.8854 16.9906Z" fill="#D4D4E3"/>
<path d="M15.1573 20.75H9.15729C8.95838 20.75 8.76761 20.829 8.62696 20.9697C8.48631 21.1103 8.40729 21.3011 8.40729 21.5C8.40729 21.6989 8.48631 21.8897 8.62696 22.0303C8.76761 22.171 8.95838 22.25 9.15729 22.25H15.1573C15.3562 22.25 15.547 22.171 15.6876 22.0303C15.8283 21.8897 15.9073 21.6989 15.9073 21.5C15.9073 21.3011 15.8283 21.1103 15.6876 20.9697C15.547 20.829 15.3562 20.75 15.1573 20.75Z" fill="#D4D4E3"/>
</svg>
