<svg width="18" height="18" viewBox="0 0 18 18" fill="none" xmlns="http://www.w3.org/2000/svg">
<path d="M14.625 2.25H12.9375V1.6875C12.9375 1.53832 12.8782 1.39524 12.7727 1.28975C12.6673 1.18426 12.5242 1.125 12.375 1.125C12.2258 1.125 12.0827 1.18426 11.9773 1.28975C11.8718 1.39524 11.8125 1.53832 11.8125 1.6875V2.25H6.1875V1.6875C6.1875 1.53832 6.12824 1.39524 6.02275 1.28975C5.91726 1.18426 5.77418 1.125 5.625 1.125C5.47582 1.125 5.33274 1.18426 5.22725 1.28975C5.12176 1.39524 5.0625 1.53832 5.0625 1.6875V2.25H3.375C3.07663 2.25 2.79048 2.36853 2.5795 2.5795C2.36853 2.79048 2.25 3.07663 2.25 3.375V14.625C2.25 14.9234 2.36853 15.2095 2.5795 15.4205C2.79048 15.6315 3.07663 15.75 3.375 15.75H14.625C14.9234 15.75 15.2095 15.6315 15.4205 15.4205C15.6315 15.2095 15.75 14.9234 15.75 14.625V3.375C15.75 3.07663 15.6315 2.79048 15.4205 2.5795C15.2095 2.36853 14.9234 2.25 14.625 2.25ZM11.918 9.40781L8.63438 12.5016C8.58332 12.5516 8.52286 12.591 8.45649 12.6176C8.39011 12.6441 8.31914 12.6573 8.24766 12.6562C8.10357 12.6568 7.9649 12.6013 7.86094 12.5016L6.08203 10.8141C6.02489 10.7642 5.97842 10.7033 5.94541 10.635C5.9124 10.5668 5.89354 10.4925 5.88996 10.4168C5.88637 10.341 5.89814 10.2654 5.92456 10.1943C5.95097 10.1232 5.99149 10.0582 6.04366 10.0032C6.09584 9.94813 6.15861 9.90422 6.22819 9.87407C6.29777 9.84392 6.37273 9.82815 6.44856 9.82771C6.52439 9.82727 6.59953 9.84217 6.66946 9.87151C6.73938 9.90085 6.80265 9.94402 6.85547 9.99844L8.24766 11.3203L11.1445 8.59219C11.1977 8.5406 11.2606 8.50015 11.3296 8.47323C11.3985 8.44631 11.4722 8.43345 11.5462 8.43542C11.6203 8.43738 11.6932 8.45413 11.7606 8.48467C11.8281 8.51522 11.8887 8.55895 11.9391 8.61328C12.0415 8.7215 12.0968 8.86595 12.0929 9.01491C12.0889 9.16387 12.026 9.30518 11.918 9.40781ZM14.625 5.625H3.375V3.375H5.0625V3.9375C5.0625 4.08668 5.12176 4.22976 5.22725 4.33525C5.33274 4.44074 5.47582 4.5 5.625 4.5C5.77418 4.5 5.91726 4.44074 6.02275 4.33525C6.12824 4.22976 6.1875 4.08668 6.1875 3.9375V3.375H11.8125V3.9375C11.8125 4.08668 11.8718 4.22976 11.9773 4.33525C12.0827 4.44074 12.2258 4.5 12.375 4.5C12.5242 4.5 12.6673 4.44074 12.7727 4.33525C12.8782 4.22976 12.9375 4.08668 12.9375 3.9375V3.375H14.625V5.625Z" fill="#B8B8C6"/>
</svg>
