<svg width="25" height="25" viewBox="0 0 25 25" fill="none" xmlns="http://www.w3.org/2000/svg">
<path d="M12.8333 2.75C11.14 2.74987 9.47586 3.19074 8.00472 4.02921C6.53357 4.86768 5.30616 6.07483 4.44332 7.53182C3.58049 8.9888 3.11197 10.6454 3.08392 12.3385C3.05586 14.0315 3.46923 15.7027 4.28332 17.1875L3.48645 19.9906C3.4115 20.2486 3.40674 20.5218 3.47266 20.7822C3.53858 21.0426 3.67279 21.2807 3.86145 21.4719C4.05008 21.6614 4.28652 21.7964 4.54566 21.8624C4.8048 21.9284 5.07698 21.9231 5.33332 21.8469L8.14582 21.05C9.44921 21.7644 10.8987 22.1713 12.3834 22.2397C13.8682 22.3081 15.3489 22.0361 16.7124 21.4445C18.076 20.853 19.2862 19.9575 20.2507 18.8266C21.2151 17.6956 21.9082 16.3592 22.277 14.9193C22.6459 13.4795 22.6806 11.9744 22.3786 10.5191C22.0766 9.06374 21.4459 7.69672 20.5347 6.52249C19.6235 5.34826 18.4558 4.3979 17.121 3.74406C15.7862 3.09022 14.3196 2.75021 12.8333 2.75ZM8.33332 13.625C8.11082 13.625 7.89331 13.559 7.7083 13.4354C7.5233 13.3118 7.37911 13.1361 7.29396 12.9305C7.20881 12.725 7.18653 12.4988 7.22994 12.2805C7.27335 12.0623 7.38049 11.8618 7.53783 11.7045C7.69516 11.5472 7.89562 11.44 8.11384 11.3966C8.33207 11.3532 8.55827 11.3755 8.76384 11.4606C8.96941 11.5458 9.14511 11.69 9.26872 11.875C9.39234 12.06 9.45832 12.2775 9.45832 12.5C9.45832 12.7984 9.33979 13.0845 9.12882 13.2955C8.91784 13.5065 8.63169 13.625 8.33332 13.625ZM12.8333 13.625C12.6108 13.625 12.3933 13.559 12.2083 13.4354C12.0233 13.3118 11.8791 13.1361 11.794 12.9305C11.7088 12.725 11.6865 12.4988 11.7299 12.2805C11.7733 12.0623 11.8805 11.8618 12.0378 11.7045C12.1952 11.5472 12.3956 11.44 12.6138 11.3966C12.8321 11.3532 13.0583 11.3755 13.2638 11.4606C13.4694 11.5458 13.6451 11.69 13.7687 11.875C13.8923 12.06 13.9583 12.2775 13.9583 12.5C13.9583 12.7984 13.8398 13.0845 13.6288 13.2955C13.4178 13.5065 13.1317 13.625 12.8333 13.625ZM17.3333 13.625C17.1108 13.625 16.8933 13.559 16.7083 13.4354C16.5233 13.3118 16.3791 13.1361 16.294 12.9305C16.2088 12.725 16.1865 12.4988 16.2299 12.2805C16.2733 12.0623 16.3805 11.8618 16.5378 11.7045C16.6952 11.5472 16.8956 11.44 17.1138 11.3966C17.3321 11.3532 17.5583 11.3755 17.7638 11.4606C17.9694 11.5458 18.1451 11.69 18.2687 11.875C18.3923 12.06 18.4583 12.2775 18.4583 12.5C18.4583 12.7984 18.3398 13.0845 18.1288 13.2955C17.9178 13.5065 17.6317 13.625 17.3333 13.625Z" fill="#D4D4E3"/>
</svg>
