<svg width="14" height="14" viewBox="0 0 14 14" fill="none" xmlns="http://www.w3.org/2000/svg">
<path d="M7.82238 6.99999L11.4974 3.33082C11.6072 3.22098 11.6689 3.072 11.6689 2.91665C11.6689 2.76131 11.6072 2.61233 11.4974 2.50249C11.3875 2.39264 11.2386 2.33093 11.0832 2.33093C10.9279 2.33093 10.7789 2.39264 10.6691 2.50249L6.99988 6.17749L3.33072 2.50249C3.22087 2.39264 3.07189 2.33093 2.91655 2.33093C2.76121 2.33093 2.61223 2.39264 2.50238 2.50249C2.39254 2.61233 2.33083 2.76131 2.33083 2.91665C2.33083 3.072 2.39254 3.22098 2.50238 3.33082L6.17738 6.99999L2.50238 10.6692C2.44771 10.7234 2.40431 10.7879 2.3747 10.859C2.34508 10.9301 2.32983 11.0063 2.32983 11.0833C2.32983 11.1603 2.34508 11.2366 2.3747 11.3077C2.40431 11.3787 2.44771 11.4433 2.50238 11.4975C2.55661 11.5522 2.62113 11.5956 2.69221 11.6252C2.7633 11.6548 2.83954 11.67 2.91655 11.67C2.99356 11.67 3.0698 11.6548 3.14089 11.6252C3.21197 11.5956 3.27649 11.5522 3.33072 11.4975L6.99988 7.82249L10.6691 11.4975C10.7233 11.5522 10.7878 11.5956 10.8589 11.6252C10.93 11.6548 11.0062 11.67 11.0832 11.67C11.1602 11.67 11.2365 11.6548 11.3076 11.6252C11.3786 11.5956 11.4432 11.5522 11.4974 11.4975C11.5521 11.4433 11.5955 11.3787 11.6251 11.3077C11.6547 11.2366 11.6699 11.1603 11.6699 11.0833C11.6699 11.0063 11.6547 10.9301 11.6251 10.859C11.5955 10.7879 11.5521 10.7234 11.4974 10.6692L7.82238 6.99999Z" fill="#B8B8C6"/>
</svg>
