<svg width="18" height="18" viewBox="0 0 18 18" fill="none" xmlns="http://www.w3.org/2000/svg">
<path d="M13.2295 11.8905C13.5944 12.2552 13.5944 12.8587 13.2295 13.2234C13.0407 13.412 12.8016 13.5 12.5626 13.5C12.3235 13.5 12.0844 13.412 11.8957 13.2234L9.00157 10.3313L6.10748 13.2234C5.91873 13.412 5.67966 13.5 5.44058 13.5C5.2015 13.5 4.96243 13.412 4.77368 13.2234C4.40877 12.8587 4.40877 12.2552 4.77368 11.8905L7.66777 8.99843L4.77368 6.10636C4.40877 5.7417 4.40877 5.13814 4.77368 4.77349C5.13859 4.40884 5.74257 4.40884 6.10748 4.77349L9.00157 7.66556L11.8957 4.77349C12.2606 4.40884 12.8646 4.40884 13.2295 4.77349C13.5944 5.13814 13.5944 5.7417 13.2295 6.10636L10.3354 8.99843L13.2295 11.8905Z" fill="#0F1010"/>
</svg>
