<svg xmlns="http://www.w3.org/2000/svg" width="24" height="24" viewBox="0 0 24 24" fill="none">
<path fill-rule="evenodd" clip-rule="evenodd" d="M20.8973 12.8312C20.7904 12.8303 20.6831 12.8294 20.5759 12.8294C20.4165 12.8294 20.257 12.8314 20.0966 12.8333C19.9343 12.8353 19.7709 12.8372 19.6056 12.8372C19.4726 12.8372 19.4257 12.8764 19.41 13.0094C19.3787 13.385 19.3005 13.7527 19.1831 14.1127C18.1815 17.1174 16.1236 18.9014 12.9937 19.4335C12.8529 19.457 12.8138 19.5039 12.8138 19.6448C12.819 20.0569 12.8173 20.469 12.8155 20.8811C12.8146 21.0871 12.8138 21.2932 12.8138 21.4992C12.8138 21.867 12.6651 22.0156 12.2895 22.0156H11.687C11.2958 22.0156 11.1549 21.8748 11.1549 21.4836C11.1471 20.8654 11.1471 20.2551 11.1549 19.6448C11.1549 19.5117 11.1236 19.4491 10.9828 19.4335C10.2786 19.3396 9.58998 19.1596 8.94836 18.8545C6.46792 17.6808 5.0047 15.7324 4.56651 13.025C4.54304 12.8764 4.51174 12.8294 4.35524 12.8294C3.72144 12.8372 3.09546 12.8372 2.46166 12.8294C2.1565 12.8294 2 12.6651 1.99218 12.3599V11.7183C1.99218 11.3114 2.13302 11.1706 2.53208 11.1706C3.15024 11.1628 3.76056 11.1628 4.37089 11.1706C4.51174 11.1706 4.55869 11.1315 4.57434 10.9906C4.62128 10.5681 4.70736 10.1455 4.8482 9.73865C5.88889 6.81221 7.93114 5.08294 10.9984 4.57434C11.1236 4.55086 11.1628 4.51174 11.1628 4.37872C11.1575 3.96661 11.1593 3.55451 11.161 3.14241C11.1619 2.93636 11.1628 2.73031 11.1628 2.52426C11.1628 2.14085 11.3036 2 11.6948 2H12.2817C12.6808 2 12.8216 2.14085 12.8216 2.53991C12.8294 3.14241 12.8294 3.75274 12.8216 4.35524C12.8216 4.51956 12.8685 4.56651 13.025 4.58216C13.385 4.61346 13.7371 4.69171 14.0736 4.80125C17.0939 5.79499 18.8858 7.8529 19.4178 10.9906C19.4413 11.1236 19.4726 11.1706 19.6213 11.1706C20.2551 11.1628 20.8811 11.1628 21.5149 11.1706C21.8435 11.1706 21.9922 11.3271 22 11.6479V12.3521C21.9922 12.6651 21.8357 12.8216 21.5305 12.8294C21.3221 12.8346 21.1103 12.8329 20.8973 12.8312ZM12 17.8295C8.78405 17.8295 6.16276 15.2003 6.17059 11.9922C6.17841 8.77625 8.80752 6.15496 12.0078 6.17061C15.2316 6.18626 17.8216 8.77625 17.8294 11.9922C17.8373 15.2003 15.216 17.8295 12 17.8295Z" fill="#101547"/>
<path d="M15.3255 12C15.3255 10.1534 13.831 8.65883 11.9922 8.66666C10.1534 8.67448 8.67448 10.1534 8.66666 11.9922C8.66666 13.8388 10.1612 15.3333 12 15.3255C13.8466 15.3255 15.3255 13.8388 15.3255 12Z" fill="#101547"/>
</svg>