<svg width="38" height="39" viewBox="0 0 38 39" fill="none" xmlns="http://www.w3.org/2000/svg">
<path d="M34.4534 25.7067L24.3201 7.46675C22.9584 5.01258 21.0743 3.66675 19.0001 3.66675C16.9259 3.66675 15.0418 5.01258 13.6801 7.46675L3.54675 25.7067C2.26425 28.0342 2.12175 30.2667 3.15092 32.0242C4.18009 33.7817 6.20675 34.7476 8.86675 34.7476H29.1334C31.7934 34.7476 33.8201 33.7817 34.8493 32.0242C35.8784 30.2667 35.7359 28.0184 34.4534 25.7067ZM17.8126 14.7501C17.8126 14.1009 18.3509 13.5626 19.0001 13.5626C19.6493 13.5626 20.1876 14.1009 20.1876 14.7501V22.6667C20.1876 23.3159 19.6493 23.8542 19.0001 23.8542C18.3509 23.8542 17.8126 23.3159 17.8126 22.6667V14.7501ZM20.1243 28.5409C20.0451 28.6042 19.9659 28.6676 19.8868 28.7309C19.7918 28.7942 19.6968 28.8417 19.6018 28.8734C19.5068 28.9209 19.4118 28.9526 19.3009 28.9684C19.2059 28.9842 19.0951 29.0001 19.0001 29.0001C18.9051 29.0001 18.7943 28.9842 18.6834 28.9684C18.5884 28.9526 18.4934 28.9209 18.3984 28.8734C18.3034 28.8417 18.2084 28.7942 18.1134 28.7309C18.0343 28.6676 17.9551 28.6042 17.8759 28.5409C17.5909 28.2401 17.4168 27.8284 17.4168 27.4167C17.4168 27.0051 17.5909 26.5934 17.8759 26.2926C17.9551 26.2292 18.0343 26.1659 18.1134 26.1026C18.2084 26.0392 18.3034 25.9917 18.3984 25.9601C18.4934 25.9126 18.5884 25.8809 18.6834 25.8651C18.8893 25.8176 19.1109 25.8176 19.3009 25.8651C19.4118 25.8809 19.5068 25.9126 19.6018 25.9601C19.6968 25.9917 19.7918 26.0392 19.8868 26.1026C19.9659 26.1659 20.0451 26.2292 20.1243 26.2926C20.4093 26.5934 20.5834 27.0051 20.5834 27.4167C20.5834 27.8284 20.4093 28.2401 20.1243 28.5409Z" fill="#096DC4"/>
</svg>
