<svg width="18" height="18" viewBox="0 0 18 18" fill="none" xmlns="http://www.w3.org/2000/svg">
<path d="M15.8023 3.9225C14.5948 3.8025 13.3873 3.7125 12.1723 3.645V3.6375L12.0073 2.6625C11.8948 1.9725 11.7298 0.9375 9.97475 0.9375H8.00975C6.26225 0.9375 6.09725 1.9275 5.97725 2.655L5.81975 3.615C5.12225 3.66 4.42475 3.705 3.72725 3.7725L2.19725 3.9225C1.88225 3.9525 1.65725 4.23 1.68725 4.5375C1.71725 4.845 1.98725 5.07 2.30225 5.04L3.83225 4.89C7.76225 4.5 11.7223 4.65 15.6973 5.0475C15.7198 5.0475 15.7348 5.0475 15.7573 5.0475C16.0423 5.0475 16.2898 4.83 16.3198 4.5375C16.3423 4.23 16.1173 3.9525 15.8023 3.9225Z" fill="#EF4646"/>
<path d="M14.4223 6.105C14.2423 5.9175 13.9948 5.8125 13.7398 5.8125H4.25975C4.00475 5.8125 3.74975 5.9175 3.57725 6.105C3.40475 6.2925 3.30725 6.5475 3.32225 6.81L3.78725 14.505C3.86975 15.645 3.97475 17.07 6.59225 17.07H11.4073C14.0248 17.07 14.1298 15.6525 14.2123 14.505L14.6773 6.8175C14.6923 6.5475 14.5948 6.2925 14.4223 6.105ZM10.2448 13.3125H7.74725C7.43975 13.3125 7.18475 13.0575 7.18475 12.75C7.18475 12.4425 7.43975 12.1875 7.74725 12.1875H10.2448C10.5523 12.1875 10.8073 12.4425 10.8073 12.75C10.8073 13.0575 10.5523 13.3125 10.2448 13.3125ZM10.8748 10.3125H7.12475C6.81725 10.3125 6.56225 10.0575 6.56225 9.75C6.56225 9.4425 6.81725 9.1875 7.12475 9.1875H10.8748C11.1823 9.1875 11.4373 9.4425 11.4373 9.75C11.4373 10.0575 11.1823 10.3125 10.8748 10.3125Z" fill="#EF4646"/>
</svg>
