<svg width="16" height="16" viewBox="0 0 16 16" fill="none" xmlns="http://www.w3.org/2000/svg">
<path d="M10.5333 1.47331C10.26 1.19998 9.78663 1.38665 9.78663 1.76665V4.09331C9.78663 5.06665 10.6133 5.87331 11.62 5.87331C12.2533 5.87998 13.1333 5.87998 13.8866 5.87998C14.2666 5.87998 14.4666 5.43331 14.2 5.16665C13.24 4.19998 11.52 2.45998 10.5333 1.47331Z" fill="#1E88E5"/>
<path d="M13.6666 6.79331H11.74C10.16 6.79331 8.87329 5.50665 8.87329 3.92665V1.99998C8.87329 1.63331 8.57329 1.33331 8.20663 1.33331H5.37996C3.32663 1.33331 1.66663 2.66665 1.66663 5.04665V10.9533C1.66663 13.3333 3.32663 14.6666 5.37996 14.6666H10.62C12.6733 14.6666 14.3333 13.3333 14.3333 10.9533V7.45998C14.3333 7.09331 14.0333 6.79331 13.6666 6.79331ZM7.66663 11.8333H4.99996C4.72663 11.8333 4.49996 11.6066 4.49996 11.3333C4.49996 11.06 4.72663 10.8333 4.99996 10.8333H7.66663C7.93996 10.8333 8.16663 11.06 8.16663 11.3333C8.16663 11.6066 7.93996 11.8333 7.66663 11.8333ZM8.99996 9.16665H4.99996C4.72663 9.16665 4.49996 8.93998 4.49996 8.66665C4.49996 8.39331 4.72663 8.16665 4.99996 8.16665H8.99996C9.27329 8.16665 9.49996 8.39331 9.49996 8.66665C9.49996 8.93998 9.27329 9.16665 8.99996 9.16665Z" fill="#1E88E5"/>
</svg>
