<svg width="7" height="12" viewBox="0 0 7 12" fill="none" xmlns="http://www.w3.org/2000/svg">
<path d="M3.94922 0.585938V2.37305H3.07031V0.585938H3.94922ZM3.84375 10.1543V11.7188H2.9707V10.1543H3.84375ZM5.01562 8.30273C5.01562 8.06836 4.96289 7.85742 4.85742 7.66992C4.75195 7.48242 4.57812 7.31055 4.33594 7.1543C4.09375 6.99805 3.76953 6.85352 3.36328 6.7207C2.87109 6.56836 2.44531 6.38281 2.08594 6.16406C1.73047 5.94531 1.45508 5.67383 1.25977 5.34961C1.06836 5.02539 0.972656 4.63281 0.972656 4.17188C0.972656 3.69141 1.07617 3.27734 1.2832 2.92969C1.49023 2.58203 1.7832 2.31445 2.16211 2.12695C2.54102 1.93945 2.98633 1.8457 3.49805 1.8457C3.89648 1.8457 4.25195 1.90625 4.56445 2.02734C4.87695 2.14453 5.14062 2.32031 5.35547 2.55469C5.57422 2.78906 5.74023 3.07617 5.85352 3.41602C5.9707 3.75586 6.0293 4.14844 6.0293 4.59375H4.95117C4.95117 4.33203 4.91992 4.0918 4.85742 3.87305C4.79492 3.6543 4.70117 3.46484 4.57617 3.30469C4.45117 3.14062 4.29883 3.01562 4.11914 2.92969C3.93945 2.83984 3.73242 2.79492 3.49805 2.79492C3.16992 2.79492 2.89844 2.85156 2.68359 2.96484C2.47266 3.07812 2.31641 3.23828 2.21484 3.44531C2.11328 3.64844 2.0625 3.88477 2.0625 4.1543C2.0625 4.4043 2.11328 4.62305 2.21484 4.81055C2.31641 4.99805 2.48828 5.16797 2.73047 5.32031C2.97656 5.46875 3.31445 5.61523 3.74414 5.75977C4.24805 5.91992 4.67578 6.10938 5.02734 6.32812C5.37891 6.54297 5.64648 6.80859 5.83008 7.125C6.01367 7.4375 6.10547 7.82617 6.10547 8.29102C6.10547 8.79492 5.99219 9.2207 5.76562 9.56836C5.53906 9.91211 5.2207 10.1738 4.81055 10.3535C4.40039 10.5332 3.91992 10.623 3.36914 10.623C3.03711 10.623 2.70898 10.5781 2.38477 10.4883C2.06055 10.3984 1.76758 10.252 1.50586 10.0488C1.24414 9.8418 1.03516 9.57031 0.878906 9.23438C0.722656 8.89453 0.644531 8.47852 0.644531 7.98633H1.73438C1.73438 8.31836 1.78125 8.59375 1.875 8.8125C1.97266 9.02734 2.10156 9.19922 2.26172 9.32812C2.42188 9.45312 2.59766 9.54297 2.78906 9.59766C2.98438 9.64844 3.17773 9.67383 3.36914 9.67383C3.7207 9.67383 4.01758 9.61914 4.25977 9.50977C4.50586 9.39648 4.69336 9.23633 4.82227 9.0293C4.95117 8.82227 5.01562 8.58008 5.01562 8.30273Z" fill="#91919E"/>
</svg>
