<svg width="18" height="18" viewBox="0 0 18 18" fill="none" xmlns="http://www.w3.org/2000/svg">
<path d="M15.75 16.5H2.25C1.9425 16.5 1.6875 16.245 1.6875 15.9375C1.6875 15.63 1.9425 15.375 2.25 15.375H15.75C16.0575 15.375 16.3125 15.63 16.3125 15.9375C16.3125 16.245 16.0575 16.5 15.75 16.5Z" fill="#27292E"/>
<path d="M14.265 2.61C12.81 1.155 11.385 1.1175 9.8925 2.61L8.985 3.5175C8.91 3.5925 8.88 3.7125 8.91 3.8175C9.48 5.805 11.07 7.395 13.0575 7.965C13.0875 7.9725 13.1175 7.98 13.1475 7.98C13.23 7.98 13.305 7.95 13.365 7.89L14.265 6.9825C15.0075 6.2475 15.3675 5.535 15.3675 4.815C15.375 4.0725 15.015 3.3525 14.265 2.61Z" fill="#27292E"/>
<path d="M11.7075 8.6475C11.49 8.5425 11.28 8.4375 11.0775 8.3175C10.9125 8.22 10.755 8.115 10.5975 8.0025C10.47 7.92 10.32 7.8 10.1775 7.68C10.1625 7.6725 10.11 7.6275 10.05 7.5675C9.8025 7.3575 9.525 7.0875 9.2775 6.7875C9.255 6.7725 9.2175 6.72 9.165 6.6525C9.09 6.5625 8.9625 6.4125 8.85 6.24C8.76 6.1275 8.655 5.9625 8.5575 5.7975C8.4375 5.595 8.3325 5.3925 8.2275 5.1825C8.21161 5.14845 8.19624 5.11458 8.18133 5.0809C8.07065 4.83091 7.74467 4.75783 7.55135 4.95114L3.255 9.2475C3.1575 9.345 3.0675 9.5325 3.045 9.66L2.64 12.5325C2.565 13.0425 2.7075 13.5225 3.0225 13.845C3.2925 14.1075 3.6675 14.25 4.0725 14.25C4.1625 14.25 4.2525 14.2425 4.3425 14.2275L7.2225 13.8225C7.3575 13.8 7.545 13.71 7.635 13.6125L11.926 9.32151C12.1206 9.12685 12.0472 8.79275 11.794 8.68471C11.7655 8.67254 11.7367 8.66015 11.7075 8.6475Z" fill="#27292E"/>
</svg>
