<svg width="18" height="18" viewBox="0 0 18 18" fill="none" xmlns="http://www.w3.org/2000/svg">
<path d="M15.0258 4.66173L12.2133 1.84923C12.1061 1.74476 11.9622 1.68667 11.8125 1.68751H6.1875C5.88913 1.68751 5.60298 1.80604 5.392 2.01701C5.18103 2.22799 5.0625 2.51414 5.0625 2.81251V3.93751H3.9375C3.63913 3.93751 3.35298 4.05604 3.142 4.26701C2.93103 4.47799 2.8125 4.76414 2.8125 5.06251V15.1875C2.8125 15.4859 2.93103 15.772 3.142 15.983C3.35298 16.194 3.63913 16.3125 3.9375 16.3125H11.8125C12.1109 16.3125 12.397 16.194 12.608 15.983C12.819 15.772 12.9375 15.4859 12.9375 15.1875V14.0625H14.0625C14.3609 14.0625 14.647 13.944 14.858 13.733C15.069 13.522 15.1875 13.2359 15.1875 12.9375V5.06251C15.1883 4.91286 15.1302 4.76889 15.0258 4.66173ZM9.5625 13.5H6.1875C6.03832 13.5 5.89524 13.4407 5.78975 13.3353C5.68426 13.2298 5.625 13.0867 5.625 12.9375C5.625 12.7883 5.68426 12.6453 5.78975 12.5398C5.89524 12.4343 6.03832 12.375 6.1875 12.375H9.5625C9.71168 12.375 9.85476 12.4343 9.96025 12.5398C10.0657 12.6453 10.125 12.7883 10.125 12.9375C10.125 13.0867 10.0657 13.2298 9.96025 13.3353C9.85476 13.4407 9.71168 13.5 9.5625 13.5ZM9.5625 11.25H6.1875C6.03832 11.25 5.89524 11.1907 5.78975 11.0853C5.68426 10.9798 5.625 10.8367 5.625 10.6875C5.625 10.5383 5.68426 10.3953 5.78975 10.2898C5.89524 10.1843 6.03832 10.125 6.1875 10.125H9.5625C9.71168 10.125 9.85476 10.1843 9.96025 10.2898C10.0657 10.3953 10.125 10.5383 10.125 10.6875C10.125 10.8367 10.0657 10.9798 9.96025 11.0853C9.85476 11.1907 9.71168 11.25 9.5625 11.25ZM14.0625 12.9375H12.9375V7.31251C12.9383 7.16286 12.8802 7.01889 12.7758 6.91173L9.96328 4.09923C9.85612 3.99476 9.71215 3.93667 9.5625 3.93751H6.1875V2.81251H11.5805L14.0625 5.29454V12.9375Z" fill="#B8B8C6"/>
</svg>
