<svg width="38" height="38" viewBox="0 0 38 38" fill="none" xmlns="http://www.w3.org/2000/svg">
<path d="M19 2.375C15.5368 2.37893 12.2166 3.75641 9.76776 6.20526C7.31891 8.6541 5.94143 11.9743 5.9375 15.4375C5.9375 26.6148 17.8125 35.0609 18.3172 35.4172C18.5194 35.5519 18.757 35.6237 19 35.6237C19.243 35.6237 19.4806 35.5519 19.6828 35.4172C20.1875 35.0609 32.0625 26.6148 32.0625 15.4375C32.0586 11.9743 30.6811 8.6541 28.2322 6.20526C25.7834 3.75641 22.4632 2.37893 19 2.375ZM19 10.6875C19.9395 10.6875 20.8578 10.9661 21.639 11.488C22.4201 12.01 23.0289 12.7518 23.3884 13.6198C23.7479 14.4877 23.842 15.4428 23.6587 16.3642C23.4755 17.2856 23.0231 18.132 22.3588 18.7963C21.6945 19.4606 20.8481 19.913 19.9267 20.0962C19.0053 20.2795 18.0502 20.1854 17.1823 19.8259C16.3143 19.4664 15.5725 18.8576 15.0505 18.0765C14.5286 17.2953 14.25 16.377 14.25 15.4375C14.25 14.1777 14.7504 12.9695 15.6412 12.0787C16.532 11.1879 17.7402 10.6875 19 10.6875Z" fill="#096DC4"/>
</svg>
