<svg width="22" height="22" viewBox="0 0 22 22" fill="none" xmlns="http://www.w3.org/2000/svg">
<path d="M11 9.16667C10.6374 9.16667 10.2829 9.2742 9.98146 9.47564C9.67997 9.67709 9.44498 9.96342 9.30622 10.2984C9.16746 10.6334 9.13116 11.002 9.20189 11.3577C9.27263 11.7133 9.44724 12.04 9.70364 12.2964C9.96004 12.5528 10.2867 12.7274 10.6423 12.7981C10.998 12.8689 11.3666 12.8325 11.7016 12.6938C12.0366 12.555 12.3229 12.32 12.5244 12.0185C12.7258 11.7171 12.8333 11.3626 12.8333 11C12.8333 10.5138 12.6402 10.0475 12.2964 9.70364C11.9525 9.35983 11.4862 9.16667 11 9.16667ZM4.58333 9.16667C4.22074 9.16667 3.86628 9.2742 3.56479 9.47564C3.2633 9.67709 3.02832 9.96342 2.88956 10.2984C2.75079 10.6334 2.71449 11.002 2.78523 11.3577C2.85597 11.7133 3.03058 12.04 3.28697 12.2964C3.54337 12.5528 3.87004 12.7274 4.22567 12.7981C4.5813 12.8689 4.94992 12.8325 5.28492 12.6938C5.61992 12.555 5.90625 12.32 6.1077 12.0185C6.30914 11.7171 6.41667 11.3626 6.41667 11C6.41667 10.5138 6.22351 10.0475 5.8797 9.70364C5.53588 9.35983 5.06956 9.16667 4.58333 9.16667ZM17.4167 9.16667C17.0541 9.16667 16.6996 9.2742 16.3981 9.47564C16.0966 9.67709 15.8616 9.96342 15.7229 10.2984C15.5841 10.6334 15.5478 11.002 15.6186 11.3577C15.6893 11.7133 15.8639 12.04 16.1203 12.2964C16.3767 12.5528 16.7034 12.7274 17.059 12.7981C17.4146 12.8689 17.7833 12.8325 18.1183 12.6938C18.4533 12.555 18.7396 12.32 18.941 12.0185C19.1425 11.7171 19.25 11.3626 19.25 11C19.25 10.5138 19.0568 10.0475 18.713 9.70364C18.3692 9.35983 17.9029 9.16667 17.4167 9.16667Z" fill="#B8B8C6"/>
</svg>
