<svg width="18" height="18" viewBox="0 0 18 18" fill="none" xmlns="http://www.w3.org/2000/svg">
<path d="M15.75 5.39296L12.6352 2.27108C12.4254 2.05601 12.1408 1.93009 11.8406 1.91952C11.6883 1.91601 11.5368 1.94349 11.3954 2.0003C11.254 2.05711 11.1256 2.14205 11.018 2.24999L9.16172 4.09921L2.58047 10.6875C2.47563 10.7915 2.39245 10.9153 2.33573 11.0517C2.27901 11.1881 2.24987 11.3343 2.25 11.482V14.625C2.25 14.9234 2.36853 15.2095 2.57951 15.4205C2.79048 15.6315 3.07663 15.75 3.375 15.75H6.51797C6.81599 15.7487 7.10148 15.63 7.3125 15.4195L15.75 6.98202C15.9587 6.77022 16.0757 6.48482 16.0757 6.18749C16.0757 5.89015 15.9587 5.60475 15.75 5.39296ZM13.5 7.64296L10.357 4.49999L11.8125 3.04452L14.9555 6.18749L13.5 7.64296Z" fill="#B8B8C6"/>
</svg>
