<svg width="14" height="14" viewBox="0 0 14 14" fill="none" xmlns="http://www.w3.org/2000/svg">
<path d="M6.44579 8.72085L5.36663 9.80002C5.13913 10.0275 4.77746 10.0275 4.54413 9.80585C4.47996 9.74169 4.41579 9.68335 4.35163 9.61919C3.75079 9.01252 3.20829 8.37669 2.72413 7.71169C2.24579 7.04669 1.86079 6.38169 1.58079 5.72252C1.30663 5.05752 1.16663 4.42169 1.16663 3.81502C1.16663 3.41835 1.23663 3.03919 1.37663 2.68919C1.51663 2.33335 1.73829 2.00669 2.04746 1.71502C2.42079 1.34752 2.82913 1.16669 3.26079 1.16669C3.42413 1.16669 3.58746 1.20169 3.73329 1.27169C3.88496 1.34169 4.01913 1.44669 4.12413 1.59835L5.47746 3.50585C5.58246 3.65169 5.65829 3.78585 5.71079 3.91419C5.76329 4.03669 5.79246 4.15919 5.79246 4.27002C5.79246 4.41002 5.75163 4.55002 5.66996 4.68419C5.59413 4.81835 5.48329 4.95835 5.34329 5.09835L4.89996 5.55919C4.83579 5.62335 4.80663 5.69919 4.80663 5.79252C4.80663 5.83919 4.81246 5.88002 4.82413 5.92669C4.84163 5.97335 4.85913 6.00835 4.87079 6.04335C4.97579 6.23585 5.15663 6.48669 5.41329 6.79002C5.67579 7.09335 5.95579 7.40252 6.25913 7.71169C6.31746 7.77002 6.38163 7.82835 6.43996 7.88669C6.67329 8.11419 6.67913 8.48752 6.44579 8.72085Z" fill="#096DC4"/>
<path d="M12.8158 10.6925C12.8158 10.8559 12.7866 11.025 12.7283 11.1884C12.7108 11.235 12.6933 11.2817 12.67 11.3284C12.5708 11.5384 12.4425 11.7367 12.2733 11.9234C11.9875 12.2384 11.6725 12.4659 11.3166 12.6117C11.3108 12.6117 11.305 12.6175 11.2991 12.6175C10.955 12.7575 10.5816 12.8334 10.1791 12.8334C9.58413 12.8334 8.94829 12.6934 8.27746 12.4075C7.60663 12.1217 6.93579 11.7367 6.27079 11.2525C6.04329 11.0834 5.81579 10.9142 5.59996 10.7334L7.50746 8.82585C7.67079 8.94835 7.81663 9.04169 7.93913 9.10585C7.96829 9.11752 8.00329 9.13502 8.04413 9.15252C8.09079 9.17002 8.13746 9.17585 8.18996 9.17585C8.28913 9.17585 8.36496 9.14085 8.42913 9.07669L8.87246 8.63919C9.01829 8.49335 9.15829 8.38252 9.29246 8.31252C9.42663 8.23085 9.56079 8.19002 9.70662 8.19002C9.81746 8.19002 9.93413 8.21335 10.0625 8.26585C10.1908 8.31835 10.325 8.39419 10.4708 8.49335L12.4016 9.86419C12.5533 9.96919 12.6583 10.0917 12.7225 10.2375C12.7808 10.3834 12.8158 10.5292 12.8158 10.6925Z" fill="#096DC4"/>
</svg>
