<svg width="19" height="18" viewBox="0 0 19 18" fill="none" xmlns="http://www.w3.org/2000/svg">
<path d="M9.5 1.6875C8.05373 1.6875 6.63993 2.11637 5.4374 2.91988C4.23486 3.72339 3.2976 4.86544 2.74413 6.20163C2.19067 7.53781 2.04586 9.00811 2.32801 10.4266C2.61017 11.8451 3.30661 13.148 4.32928 14.1707C5.35196 15.1934 6.65492 15.8898 8.07341 16.172C9.49189 16.4541 10.9622 16.3093 12.2984 15.7559C13.6346 15.2024 14.7766 14.2651 15.5801 13.0626C16.3836 11.8601 16.8125 10.4463 16.8125 9C16.8088 7.06175 16.0372 5.20394 14.6666 3.83339C13.2961 2.46283 11.4383 1.69122 9.5 1.6875ZM12.3125 9.5625H10.0625V11.8125C10.0625 11.9617 10.0032 12.1048 9.89775 12.2102C9.79226 12.3157 9.64919 12.375 9.5 12.375C9.35082 12.375 9.20775 12.3157 9.10226 12.2102C8.99677 12.1048 8.9375 11.9617 8.9375 11.8125V9.5625H6.6875C6.53832 9.5625 6.39525 9.50324 6.28976 9.39775C6.18427 9.29226 6.125 9.14918 6.125 9C6.125 8.85082 6.18427 8.70774 6.28976 8.60225C6.39525 8.49676 6.53832 8.4375 6.6875 8.4375H8.9375V6.1875C8.9375 6.03832 8.99677 5.89524 9.10226 5.78975C9.20775 5.68426 9.35082 5.625 9.5 5.625C9.64919 5.625 9.79226 5.68426 9.89775 5.78975C10.0032 5.89524 10.0625 6.03832 10.0625 6.1875V8.4375H12.3125C12.4617 8.4375 12.6048 8.49676 12.7103 8.60225C12.8157 8.70774 12.875 8.85082 12.875 9C12.875 9.14918 12.8157 9.29226 12.7103 9.39775C12.6048 9.50324 12.4617 9.5625 12.3125 9.5625Z" fill="black"/>
</svg>
