<svg width="18" height="18" viewBox="0 0 18 18" fill="none" xmlns="http://www.w3.org/2000/svg">
<path d="M15.5883 9.40078L12.6352 12.3539C12.5272 12.4571 12.3837 12.515 12.2344 12.5156C12.1619 12.5158 12.0902 12.5015 12.0234 12.4734C11.9197 12.4315 11.8309 12.3596 11.7683 12.2669C11.7057 12.1742 11.6721 12.065 11.6719 11.9531V9.5625H7.3125C7.16332 9.5625 7.02024 9.50324 6.91475 9.39775C6.80926 9.29226 6.75 9.14918 6.75 9C6.75 8.85082 6.80926 8.70774 6.91475 8.60225C7.02024 8.49676 7.16332 8.4375 7.3125 8.4375H11.6719V6.04688C11.6721 5.93502 11.7057 5.82578 11.7683 5.73309C11.8309 5.64041 11.9197 5.56851 12.0234 5.52656C12.1261 5.48577 12.2384 5.47535 12.3468 5.49654C12.4553 5.51774 12.5554 5.56965 12.6352 5.64609L15.5883 8.59922C15.6939 8.70587 15.7532 8.8499 15.7532 9C15.7532 9.1501 15.6939 9.29413 15.5883 9.40078ZM7.3125 14.625H3.375V3.375H7.3125C7.46168 3.375 7.60476 3.31574 7.71025 3.21025C7.81574 3.10476 7.875 2.96168 7.875 2.8125C7.875 2.66332 7.81574 2.52024 7.71025 2.41475C7.60476 2.30926 7.46168 2.25 7.3125 2.25H3.375C3.07663 2.25 2.79048 2.36853 2.5795 2.5795C2.36853 2.79048 2.25 3.07663 2.25 3.375V14.625C2.25 14.9234 2.36853 15.2095 2.5795 15.4205C2.79048 15.6315 3.07663 15.75 3.375 15.75H7.3125C7.46168 15.75 7.60476 15.6907 7.71025 15.5852C7.81574 15.4798 7.875 15.3367 7.875 15.1875C7.875 15.0383 7.81574 14.8952 7.71025 14.7898C7.60476 14.6843 7.46168 14.625 7.3125 14.625Z" fill="#B8B8C6"/>
</svg>
