<svg width="8" height="11" viewBox="0 0 8 11" fill="none" xmlns="http://www.w3.org/2000/svg">
<path d="M3.99998 0.916672C2.79915 0.916672 1.8229 1.89292 1.8229 3.09376C1.8229 4.27167 2.74415 5.225 3.94498 5.26625C3.98165 5.26167 4.01832 5.26167 4.04582 5.26625C4.05498 5.26625 4.05957 5.26625 4.06873 5.26625C4.07332 5.26625 4.07332 5.26625 4.0779 5.26625C5.25123 5.225 6.17248 4.27167 6.17707 3.09376C6.17707 1.89292 5.20082 0.916672 3.99998 0.916672Z" fill="white"/>
<path d="M6.32832 6.48542C5.04957 5.63292 2.96415 5.63292 1.67623 6.48542C1.09415 6.875 0.773315 7.40209 0.773315 7.96584C0.773315 8.52959 1.09415 9.05209 1.67165 9.43709C2.31332 9.86792 3.15665 10.0833 3.99998 10.0833C4.84332 10.0833 5.68665 9.86792 6.32832 9.43709C6.90582 9.0475 7.22665 8.525 7.22665 7.95667C7.22207 7.39292 6.90582 6.87042 6.32832 6.48542Z" fill="white"/>
</svg>
