<svg width="25" height="25" viewBox="0 0 25 25" fill="none" xmlns="http://www.w3.org/2000/svg">
<path d="M22.2407 20.375C20.8412 17.9642 18.6012 16.1548 15.95 15.2937C17.2208 14.5381 18.2083 13.3861 18.7609 12.0148C19.3134 10.6434 19.4005 9.12862 19.0086 7.70303C18.6168 6.27743 17.7677 5.01992 16.5919 4.12367C15.4161 3.22742 13.9785 2.742 12.5 2.742C11.0216 2.742 9.58399 3.22742 8.40815 4.12367C7.23231 5.01992 6.38326 6.27743 5.99141 7.70303C5.59957 9.12862 5.68662 10.6434 6.23918 12.0148C6.79175 13.3861 7.77927 14.5381 9.05003 15.2937C6.39887 16.1548 4.15884 17.9642 2.7594 20.375C2.6907 20.488 2.65436 20.6177 2.65436 20.75C2.65436 20.8822 2.6907 21.012 2.7594 21.125C2.82351 21.2399 2.91744 21.3354 3.03129 21.4014C3.14514 21.4674 3.27469 21.5015 3.40628 21.5H21.5938C21.7254 21.5015 21.8549 21.4674 21.9688 21.4014C22.0826 21.3354 22.1766 21.2399 22.2407 21.125C22.3094 21.012 22.3457 20.8822 22.3457 20.75C22.3457 20.6177 22.3094 20.488 22.2407 20.375Z" fill="#D4D4E3"/>
</svg>
