<svg width="18" height="18" viewBox="0 0 18 18" fill="none" xmlns="http://www.w3.org/2000/svg">
<path d="M15.1875 5.0625H3.9375C3.78832 5.0625 3.64524 5.00324 3.53975 4.89775C3.43426 4.79226 3.375 4.64918 3.375 4.5C3.375 4.35082 3.43426 4.20774 3.53975 4.10225C3.64524 3.99676 3.78832 3.9375 3.9375 3.9375H13.5C13.6492 3.9375 13.7923 3.87824 13.8977 3.77275C14.0032 3.66726 14.0625 3.52418 14.0625 3.375C14.0625 3.22582 14.0032 3.08274 13.8977 2.97725C13.7923 2.87176 13.6492 2.8125 13.5 2.8125H3.9375C3.49052 2.81435 3.06237 2.99273 2.7463 3.3088C2.43023 3.62487 2.25185 4.05302 2.25 4.5V13.5C2.25185 13.947 2.43023 14.3751 2.7463 14.6912C3.06237 15.0073 3.49052 15.1856 3.9375 15.1875H15.1875C15.4859 15.1875 15.772 15.069 15.983 14.858C16.194 14.647 16.3125 14.3609 16.3125 14.0625V6.1875C16.3125 5.88913 16.194 5.60298 15.983 5.392C15.772 5.18103 15.4859 5.0625 15.1875 5.0625ZM12.6562 10.9688C12.4894 10.9688 12.3262 10.9193 12.1875 10.8266C12.0487 10.7338 11.9406 10.6021 11.8767 10.4479C11.8129 10.2937 11.7962 10.1241 11.8287 9.96039C11.8613 9.79672 11.9416 9.64638 12.0596 9.52838C12.1776 9.41038 12.328 9.33002 12.4916 9.29746C12.6553 9.26491 12.825 9.28162 12.9791 9.34548C13.1333 9.40934 13.2651 9.51748 13.3578 9.65624C13.4505 9.79499 13.5 9.95812 13.5 10.125C13.5 10.3488 13.4111 10.5634 13.2529 10.7216C13.0946 10.8799 12.88 10.9688 12.6562 10.9688Z" fill="#B8B8C6"/>
</svg>
